<svg width="169" height="30" viewBox="0 0 169 30" fill="none" xmlns="http://www.w3.org/2000/svg">
<path d="M57.4528 6.00879H54.1445V23.0001H61.9464L63.8393 20.2305H57.4528V6.00879Z" fill="white"/>
<path d="M49.571 6.00879H46.2627V23.0001H49.571V6.00879Z" fill="white"/>
<path d="M9.00488 23.0001H12.6139L14.958 19.5848H22.2202V23.0001H25.5196L25.5285 6.00879H20.6811L9.00488 23.0001ZM22.2202 16.8153H16.8598L22.2202 9.00776V16.8153Z" fill="white"/>
<path d="M40.9906 7.5377C39.6726 6.41627 38.16 6 35.8866 6C35.1878 6 30.0928 6 30.0928 6V22.9913H33.401V14.9119V8.78656H36.0636C37.187 8.78656 38.0538 9.03294 38.6996 9.66161C39.2391 10.1798 39.5664 10.9275 39.5664 11.8535C39.5664 12.7795 39.2214 13.5696 38.6465 14.0963C37.9919 14.691 37.1604 14.9204 36.0636 14.9204H33.401L36.1166 17.622C38.2307 17.622 39.7168 17.1888 40.9817 16.1098C42.2113 15.0734 42.8835 13.5611 42.8835 11.8195C42.8835 10.0694 42.2113 8.57417 40.9906 7.5377Z" fill="white"/>
<path d="M64.6436 6.00879L70.4728 14.5044L64.6436 23.0001H68.3322L74.1614 14.5044L68.3322 6.00879H64.6436Z" fill="white"/>
<path d="M76.3116 6.00879L72.3223 11.8113H76.0109L80.0003 6.00879H76.3116Z" fill="white"/>
<path d="M3.69746 6.00879H0L5.8381 14.5044L0 23.0001H3.69746L9.52672 14.5044L3.69746 6.00879Z" fill="white"/>
<path d="M15.3645 6.00879H11.6759L7.68652 11.8113H11.3751L15.3645 6.00879Z" fill="white"/>
<path d="M105.406 22C110.374 22 114.008 18.688 114.008 13.835C114.008 8.982 110.374 5.67 105.406 5.67H100.139V22H105.406ZM105.406 7.441C109.27 7.441 112.053 10.017 112.053 13.835C112.053 17.653 109.27 20.229 105.406 20.229H102.048V7.441H105.406ZM125.926 22.414C130.756 22.414 134.597 18.941 134.597 13.835C134.597 8.729 130.756 5.256 125.926 5.256C121.096 5.256 117.255 8.729 117.255 13.835C117.255 18.941 121.096 22.414 125.926 22.414ZM125.926 20.62C122.085 20.62 119.187 17.791 119.187 13.835C119.187 9.879 122.085 7.05 125.926 7.05C129.767 7.05 132.665 9.879 132.665 13.835C132.665 17.791 129.767 20.62 125.926 20.62ZM146.598 22.414C148.714 22.414 150.37 21.908 151.934 20.919L151.175 19.217C150.002 20.206 148.231 20.62 146.69 20.62C142.734 20.62 139.744 17.768 139.744 13.835C139.744 9.879 142.665 7.05 146.598 7.05L151.635 8.568V6.429C150.37 5.808 148.599 5.256 146.598 5.256C141.63 5.256 137.812 8.729 137.812 13.835C137.812 18.941 141.63 22.414 146.598 22.414ZM159.605 22.276C162.48 22.276 164.642 20.574 164.642 17.745C164.642 12.156 156.845 13.145 156.845 9.442C156.845 8.062 157.926 7.096 159.674 7.096L163.768 8.522V6.498C162.48 5.877 161.146 5.394 159.651 5.394C156.96 5.394 155.005 6.935 155.005 9.442C155.005 14.847 162.802 13.605 162.802 17.768C162.802 19.677 161.399 20.551 159.467 20.551L154.821 19.033V21.149C156.5 21.816 157.88 22.276 159.605 22.276Z" fill="#EDD4FF"/>
<path d="M90 0H88V30H90V0Z" fill="#EDD4FF"/>
</svg>
